<svg id="Ebene_1" data-name="Ebene 1" xmlns="http://www.w3.org/2000/svg" xmlns:xlink="http://www.w3.org/1999/xlink" viewBox="0 0 430.54 184.35"><defs><style>.cls-1,.cls-5{fill:none;}.cls-2{clip-path:url(#clip-path);}.cls-3{opacity:0.7;}.cls-4{fill:#fff;}.cls-5{stroke:#000;stroke-miterlimit:10;stroke-width:0.11px;}.cls-6{fill:orange;}.cls-7{fill:#fea500;}</style><clipPath id="clip-path" transform="translate(-15.27 -17.5)"><rect class="cls-1" x="195" y="132" width="70.16" height="71"/></clipPath></defs><title>Logo</title><g id="Filled_Color" data-name="Filled Color"><g class="cls-2"><g class="cls-2"><path class="cls-4" d="M259.56,167.35c0,16.66-13.23,30.16-29.55,30.16s-29.54-13.5-29.54-30.16S213.7,137.19,230,137.19s29.55,13.5,29.55,30.16" transform="translate(-15.27 -17.5)"/><ellipse class="cls-5" cx="214.74" cy="149.85" rx="29.54" ry="30.16"/></g><g class="cls-2"><path class="cls-6" d="M230,162a5.6,5.6,0,1,0,5.59,5.59A5.59,5.59,0,0,0,230,162" transform="translate(-15.27 -17.5)"/><path class="cls-6" d="M254.2,143.39a34.23,34.23,0,1,0,10,24.21,34,34,0,0,0-10-24.21m-8.27,8.5a22.39,22.39,0,0,1,3.42,4.49l-4.14,4.14a16.7,16.7,0,0,0-3.24-4.67Zm-18.77-12.12a26.41,26.41,0,0,1,2.83-.15c.93,0,1.85,0,2.77.14V151a17,17,0,0,0-2.77-.23,17.52,17.52,0,0,0-2.83.24Zm5.6,38.68v17c-.92.09-1.83.14-2.77.14a28.47,28.47,0,0,1-3.5-.22h0l-.46-.06-.18,0-.42-.06-.22,0-.4-.07-.23,0-.4-.08-.22-.05c-.13,0-.27,0-.4-.09l-.18,0c-.47-.11-.94-.24-1.4-.38l-.2-.06-.37-.11-.24-.08-.35-.12-.25-.09-.35-.12-.24-.1-.34-.13-.24-.1-.67-.28-.2-.09-.31-.14-.27-.13-.3-.14-.27-.14-.29-.15-.27-.14-.28-.15-.29-.16-.25-.15-.34-.19-.2-.13c-.18-.1-.35-.21-.52-.32l-.21-.13-.31-.21-.23-.16-.29-.2-.23-.16-.29-.22-.21-.15-.32-.24-.18-.15-.4-.32-.09-.07-.47-.4-.15-.13-.33-.29-.17-.16-.29-.27-.18-.17-.28-.27-.17-.17a.6.6,0,0,0-.08-.08l4-3.93a22.38,22.38,0,0,1,.2-31.62l4,4a16.79,16.79,0,0,0-.18,23.73l-4,3.93a22.29,22.29,0,0,0,13.12,6.49V178.43a11.18,11.18,0,1,1,5.6,0m17.09,8.85-7.91-7.92a16.46,16.46,0,0,0,3.24-4.65l8.2,8.21a27.94,27.94,0,0,1-3.53,4.36" transform="translate(-15.27 -17.5)"/></g></g></g><path class="cls-7" d="M99.64,31.25c-2.56.74-4.55,2.93-6.5,4.67L89.64,39c-4.47,4-8.92,8-13.41,12-9.69,8.59-19.49,17-28.88,26a257.28,257.28,0,0,0-25.52,28.1,40,40,0,0,0-5.14,7.76A11.85,11.85,0,0,0,15.28,118a9.42,9.42,0,0,0,1.18,5.16,9.62,9.62,0,0,0,8.23,4.71c2.55,0,5.11-.17,7.65-.27A183.29,183.29,0,0,0,50.92,126c11-1.54,22-3.87,33-5.46q6.18-.63,12.39-.94a8.6,8.6,0,0,0,5.9-2.45,8.34,8.34,0,0,0,2.45-5.89c0-4.37-3.8-8.58-8.35-8.35-3.46.18-6.92.37-10.38.69-4.27.4-8.52,1-12.77,1.61-6.52.93-13,2.08-19.53,3.06-4.42.57-8.85,1.06-13.3,1.37q4.34-5.17,8.83-10.23c4.43-5,9.17-9.71,13.89-14.44C71.85,76.12,81.14,67.8,90,59q3.89-3.89,7.68-7.88,1.47-1.55,2.93-3.11c.61,1.37,1.2,2.76,1.81,4.12,1.28,2.82,2.74,5.56,4.24,8.27,3.09,5.57,6.54,10.89,10.09,16.19,3.88,5.79,8.21,11.3,12.55,16.75,3.78,4.75,7.58,9.5,11.61,14A136.54,136.54,0,0,0,152,119.06a85.43,85.43,0,0,0,7.52,6c.9.64,1.79,1.28,2.73,1.86a15.37,15.37,0,0,0,1.49.83,12.77,12.77,0,0,0,5.62,1.59,8.75,8.75,0,0,0,4.46-1.2,9.29,9.29,0,0,0,4.07-5.29v0A8.84,8.84,0,0,0,171.74,112a9,9,0,0,0-2.29-.31l-.59-.19a43.8,43.8,0,0,1-4.91-3.07A148.73,148.73,0,0,1,147.16,91.9c-5.11-5.66-9.88-11.6-14.61-17.58-1.73-2.34-3.46-4.69-5.13-7.08-2-2.84-3.86-5.7-5.71-8.62a146.75,146.75,0,0,1-9.09-16.95c-.64-1.35-1.27-2.7-1.91-4.06a15.6,15.6,0,0,0-2.64-4.14,7.1,7.1,0,0,0-3.51-2.28,16.73,16.73,0,0,0-2.44-.38,9,9,0,0,0-2.48.44" transform="translate(-15.27 -17.5)"/><path class="cls-7" d="M235.66,29.07c-4.46,2.46-8.86,5-13.19,7.65-4,2.47-7.88,5.11-11.71,7.81-7.3,5.15-14.22,10.84-21.26,16.32-2.14,1.63-4.31,3.22-6.48,4.81q-2,1.45-3.9,3a9.59,9.59,0,0,0-2.41,2.7,6.8,6.8,0,0,0-.89,3.72,6.72,6.72,0,0,0,.91,3.36,14.37,14.37,0,0,0,1.41,1.9A26.71,26.71,0,0,0,181,82.45a21.06,21.06,0,0,0,2.71,1.3c1.17.5,2.33,1,3.51,1.39s2.58,1,3.9,1.32c3.05.87,6.11,1.68,9.2,2.43q13,3.15,26,6.15c-2.64,1.53-5.31,3-7.94,4.53-2.84,1.63-5.7,3.26-8.51,5-3.6,2.15-7.43,4.23-10.05,7.58a8.49,8.49,0,0,0,3.75,14.19c.75.11,1.5.2,2.26.3a8.27,8.27,0,0,0,4.28-1.16,40.82,40.82,0,0,0,4.21-2l4.11-2.57q3.79-2.34,7.63-4.61c5.5-3.25,11-6.47,16.37-9.94a47,47,0,0,0,8.45-6.66,12,12,0,0,0,3.56-8,9.9,9.9,0,0,0-1.52-5,8.69,8.69,0,0,0-3.12-3.11A30.45,30.45,0,0,0,247,82.3a14.43,14.43,0,0,0-2.41-.38l-2.41-.39c-1.42-.22-2.84-.46-4.26-.7-6.22-1-12.42-2.16-18.61-3.33q-8-1.5-16-3.13c-3.52-.71-7.08-1.45-10.58-2.41l1.35-1.25q3.19-3,6.48-5.84c4.22-3.71,8.57-7.25,13-10.74,4-3,8.12-6,12.37-8.68,4.69-3,9.53-5.77,14.41-8.47a4.62,4.62,0,0,0,1.64-6.27,4.56,4.56,0,0,0-4-2.24,4.82,4.82,0,0,0-2.31.6" transform="translate(-15.27 -17.5)"/><path class="cls-7" d="M281.22,63.67l-1.11,1.43a7,7,0,0,0-1,3.57c-.18,1.56-.37,3.11-.56,4.66-.54,3.86-1.08,7.71-1.8,11.54-.92,4.94-1.94,9.83-2.5,14.84a7.31,7.31,0,0,0,1,3.68,7.3,7.3,0,0,0,10,2.63,7,7,0,0,0,3.37-4.37c1.81-10.94,3.4-22,4.61-33a6.8,6.8,0,0,0-2.07-5,7.06,7.06,0,0,0-10,0" transform="translate(-15.27 -17.5)"/><path class="cls-7" d="M286.37,25.18a7.69,7.69,0,1,0,7.69-7.68,7.75,7.75,0,0,0-7.69,7.68" transform="translate(-15.27 -17.5)"/><path class="cls-7" d="M315.48,32.16a6.66,6.66,0,0,0-4,3c-.22.52-.44,1-.67,1.58a6.74,6.74,0,0,0,0,3.51c.62,3.86,1.24,7.73,1.78,11.6.09.68.18,1.36.28,2l-.24-1.73h0c.12.83.23,1.66.34,2.48,0,.52.12,1,.2,1.57.78,6.48,1.52,12.95,2.42,19.4a164.6,164.6,0,0,0,3.78,17.85c.74,2.89,1.51,5.77,2.2,8.67.29,1.2.55,2.4.85,3.59.16.64.33,1.27.53,1.9a8.4,8.4,0,0,0,6,6,7.67,7.67,0,0,0,5.63-.73,11.68,11.68,0,0,0,2.22-1.68,20.48,20.48,0,0,0,2.26-2.76c.48-.64,1-1.27,1.39-1.94q1.42-2.19,2.81-4.43c1.61-2.62,3.16-5.31,4.73-8q4.11-7,8.49-13.75c1.46-2.26,2.92-4.5,4.39-6.75,1.78,4.34,3.59,8.66,5.64,12.89,2.64,5.44,5.66,10.7,8.38,16.12s5,10.77,8,15.9c.29.51.59,1,.91,1.5a9.57,9.57,0,0,0,3.06,3.17,9,9,0,0,0,4.34,1.34,14.08,14.08,0,0,0,3.1-.47,17.36,17.36,0,0,0,6.17-3.94,42.43,42.43,0,0,0,3.57-3.65c2.28-2.53,4.46-5.14,6.64-7.75,5.77-6.88,11.59-13.72,17.14-20.76q4.58-5.79,9.11-11.62c1.31-1.69,2.63-3.37,3.93-5.06L443,68.68c1.42-1.81,2.85-3.53,2.82-6a6.11,6.11,0,0,0-.83-3.06,6.42,6.42,0,0,0-3.63-2.79c-2.79-1-5.68.73-7.54,2.66-.92,1-1.8,2-2.68,3-1.81,2.09-3.56,4.23-5.3,6.37-3.88,4.78-7.73,9.58-11.63,14.33-3.38,4.13-6.88,8.16-10.36,12.2-1.95,2.27-3.89,4.56-5.86,6.81-1.67,1.91-3.34,3.9-5.13,5.74-.92-1.7-1.78-3.44-2.66-5.15-1.79-3.48-3.59-7-5.43-10.42-1.95-3.67-3.92-7.34-5.81-11C377.23,78,375.71,74.49,374.2,71q-1.27-3.1-2.56-6.2a54.7,54.7,0,0,0-2.36-5.17,10.37,10.37,0,0,0-3.88-3.95,6.7,6.7,0,0,0-3.38-.92,8.36,8.36,0,0,0-4.22,1,14.73,14.73,0,0,0-2.14,1.71,22.84,22.84,0,0,0-1.91,2.4c-3.15,4.24-6.15,8.6-9.11,13s-5.78,8.87-8.56,13.38q-1.44,2.35-2.86,4.74c-.6-2.09-1.17-4.18-1.72-6.29-.87-3.38-1.71-6.78-2.34-10.23s-1.18-7.06-1.68-10.6q-.62-4.71-1.27-9.42a1.09,1.09,0,0,0,0-.18,6.51,6.51,0,0,0-.3-1.94c-.73-5.18-1.49-10.36-2.31-15.53a6.33,6.33,0,0,0-3-4,6.54,6.54,0,0,0-3.34-.9,6.47,6.47,0,0,0-1.75.23" transform="translate(-15.27 -17.5)"/></svg>